<?xml version="1.0" ?><!DOCTYPE svg  PUBLIC '-//W3C//DTD SVG 1.1//EN'  'http://www.w3.org/Graphics/SVG/1.1/DTD/svg11.dtd'><svg enable-background="new 0 0 128 128" id="Layer_1" version="1.1" viewBox="0 0 128 128" xml:space="preserve" xmlns="http://www.w3.org/2000/svg" xmlns:xlink="http://www.w3.org/1999/xlink"><polyline fill="#DBC5B9" points="9.37,113.042 25.477,88.231 33.1,67.788 38.55,66.037 51.321,45.465 60.117,59.222 66.324,64.211   70.251,75.07 94.531,113.042 "/><polygon opacity="0.1" points="54.345,70.435 56.985,81.834 66.711,82.685 68.904,110.127 91.804,108.778 70.153,75.131   66.324,64.211 60.064,59.262 51.321,45.561 48.747,65.539 "/><polyline fill="none" points="  9.37,113.042 25.477,88.231 33.1,67.788 38.55,66.037 51.321,45.465 60.106,59.204 66.324,64.165 70.206,75 92.666,110.127 " stroke="#4A7DA7" stroke-linecap="round" stroke-linejoin="round" stroke-miterlimit="10" stroke-width="4"/><polyline fill="none" points="51.321,45.465   48.747,65.491 54.345,70.435 56.985,81.834 66.711,82.508 68.904,110.127 " stroke="#4A7DA7" stroke-linecap="round" stroke-miterlimit="10" stroke-width="2"/><polyline fill="#DBC5B9" points="58.873,113.316 73.736,87.016 79.349,82.758 88.117,66.208 118.239,113.316 "/><polygon opacity="0.1" points="91.642,82.518 89.201,90.091 101.722,97.909 110.507,114 118.239,114 113.107,102.306   105.473,93.465 88.117,66.254 86.742,80.801 "/><polyline fill="none" points="  58.873,113.316 73.736,87.016 79.349,82.758 88.117,66.208 105.437,93.295 113.107,101.912 118.239,113.316 " stroke="#4A7DA7" stroke-linecap="round" stroke-linejoin="round" stroke-miterlimit="10" stroke-width="4"/><polyline fill="none" points="88.117,66.208   86.742,80.778 91.642,82.518 89.201,90.091 101.722,97.567 110.507,113.316 " stroke="#4A7DA7" stroke-linecap="round" stroke-miterlimit="10" stroke-width="2"/><line fill="none" stroke="#4A7DA7" stroke-linecap="round" stroke-miterlimit="10" stroke-width="2" x1="51.321" x2="51.321" y1="45.465" y2="15"/><polygon fill="#F3B0AE" points="75,31 54,31 54,17 75,17 72,24 "/><polygon fill="none" points="  75,31 54,31 54,17 75,17 72,24 " stroke="#4A7DA7" stroke-linecap="round" stroke-linejoin="round" stroke-miterlimit="10" stroke-width="2"/></svg>